<?xml version="1.0" encoding="UTF-8"?>
<svg version="1.1" viewBox="0 0 1104 1104" width="1104" height="1104" xmlns="http://www.w3.org/2000/svg">
<path transform="translate(556,149)" d="m0 0 9 1 14 5 32 16 12 5 13 6 18 7 17 8 16 8 21 10 32 16 42 20 13 8 22 4 29 14 29 15 32 16 15 8 19 9 12 7 6 5 3 7v13l-2 53-1 41-1 10-5 11-1 55-1 154 2 9 3 5 1 12v32l-1 55-2 8-5 6-36 20-17 8-19 10-31 16-12 3-11 8-19 9-15 8-16 8-19 10-16 8-36 19-18 8-13 3-10 10-17 9-14 8-12 6-22 12-23 12-6 4h-14l-10-3-19-10-22-13-12-6-15-9-23-13-17-8-9-6-7-7-4-2-13-3-18-10-14-8-24-14-28-16-21-11-14-7-9-6-19-7-29-17-25-14-15-9-11-6-6-4-3-4-1-10-1-45-2-37v-27l1-15-3-118-1-28-1-46-3-10-2-25-1-24v-66l5-10 8-7 17-9 27-12 15-7 16-7 16-8 13-6 21-10 11-5 17-2 11-7 16-8 28-12 12-6 29-13 27-12 15-7 19-9 11-4 9-6 30-13 16-8 11-5z" fill="#2B1E32"/>
<path transform="translate(266,491)" d="m0 0h8l8 3 10 6 27 14 12 7 16 8 35 18 22 11 17 8 9 7 7 7 9 15 4 12 2 18 1 139-1 54-3 11-4 4-3 1h-9l-10-4-35-21-24-14-24-13-16-9-26-14-16-9-7-6-7-11-6-15-3-11-2-62-1-19-2-70-1-20v-29l3-8 5-5z" fill="#964262"/>
<path transform="translate(550,222)" d="m0 0h6l25 12 33 16 37 18 15 7 44 22 8 5-8 4-1 4v16l1 16 3 3 9 3-4 4-25 12-17 8-28 13-24 11-16 8-7 3-14 7-7 3-5 1-12-5-14-6-5-1-9 3-14 7-5-1-28-15-19-10-27-14-45-23-23-11-24-11-8-4 1-4 35-16 12-5h7v-4l-7-2v-2l21-9 33-15 29-13 21-9 34-16z" fill="#0E7490"/>
<path transform="translate(792,550)" d="m0 0h20l13 4 8 4 13 10 1 3 3 1 9 13 6 13 5 16 3 14 1 21-2 20-4 18-6 18-7 16-6 12-10 18-11 16-8 8-1 2h-2v2h-2v2l-14 11-19 10-14 4-12 1h-12l-15-4-14-6-9-8-10-14-5-10-6-21-2-11-1-20 2-20 5-24 9-27 10-21 7-11 4-6h2l1-4h3l2-5 8-11 11-11 9-6h2v-2l10-6 6-3h2v-2l10-3z" fill="#474E5C"/>
<path transform="translate(182,317)" d="m0 0h3v2l-12 6 26 13 19 10 33 16 19 10 10 4-1 2h-2v2l-3 1-4 5-5-1-26-14-19-10-56-28h-3l76 38 24 14 5 3 2 69v25l-11 8-6 7-3 5-3 1-19-9-17-9-32-16-15-8-3-1 2 5 1 8 35 18 27 14 17 9 4 5 1 3 1 19 1 63 2 67v32l-3 1-11-5-25-13-23-13-19-10-2-2-1-5-2-69-1-48-1-24 3 117 1 37-1 5v26l2 48 1 38 1 7 13 8 15 8 17 10 16 9v2l-6-2-24-14-14-8-11-6-6-4-3-4-1-10-1-45-2-37v-27l1-15-3-118-1-28-1-46-3-10-2-25-1-24v-66l5-10 8-7z" fill="#2139A0"/>
<path transform="translate(282,762)" d="m0 0 6 1 28 15 19 11 28 15 23 13 14 8 11 6 3 3v92l7 3 4 6v-88l1-9 9 1 11-2 5-2v-2h2v-2h2l2-6 8 1 56 30 17 11 3 9 1 24v99l-1 2-6-1-25-14-16-9-26-15-16-9-17-8-9-6-7-7-4-2-13-3-18-10-14-8-24-14-28-16-21-11-12-6-5-9-2-52v-35z" fill="#0D6A87"/>
<path transform="translate(476,189)" d="m0 0h6l24 12 28 13 7 4-1 3-19 9-68 31-27 12-28 13-10 4h-6l-25-12-23-12-8-4h-5l-6 2h-5l16 8 34 18 20 11-4 3-17 8-23 10-3 2-1 4 6 2 23 11 1 2-36 16-37 17-9 3-16-7-27-14-37-18-19-10-9-5 3-2 8-4h2l1-4 23-10 15-7 16-7 16-8 13-6 21-10 11-5 17-2 11-7 16-8 19-8 1 2 19-9 36-16 31-14z" fill="#6E9B3A"/>
<path transform="translate(519,266)" d="m0 0h33l6 3 8 7 14 9v-5l9-5 5-2h9l16 7 18 10 10 8 8 11 3 9v11l-7 14-9 9-15 10-14 6-19 7-12 3-9 1h-11l-13-1-6-2 1 4-1 2-10 4h-7l-12-5-42-22-16-8-11-7-7-8-2-5v-18l4-9 8-10 14-10 16-8 19-6 15-3z" fill="#291B31"/>
<path transform="translate(671,617)" d="m0 0 2 1-2 5-8 19-7 20-6 24-3 23-1 25 2 27 4 16 5 12 7 11 5 7-1 1-10 2-25 12-22 11-23 11-22 11-7 1v-182l2-4 31-15 28-13 31-15 9-5 7-4z" fill="#DBC6A8"/>
<path transform="translate(949,479)" d="m0 0h1v32l-1 120-1 54-8 5-26 12-58 29 3-9 7-17 6-19 6-27 2-14v-27l-4-22-6-18-9-15-5-5v-2l-4-2-6-6-1-14 2-5 15-8 28-13 37-18 18-8z" fill="#DBC6A8"/>
<path transform="translate(162,476)" d="m0 0 6 2 56 29 17 9 4 5 1 3 1 19 1 63 2 67v32l-3 1-11-5-25-13-23-13-19-10-2-2-1-5-2-69-1-48-1-26z" fill="#2139A0"/>
<path transform="translate(807,263)" d="m0 0 6 1 12 5 28 14 19 10 24 12 23 11 31 16v3l-16 8-31 15-29 13-33 16-9 3-41-20-50-24-5-3 3-3 29-14v-2l-19-10-22-12 4-3 38-18 31-15z" fill="#A62864"/>
<path transform="translate(288,384)" d="m0 0 6 2 27 14 48 24 16 9 23 12 19 9v4l-4 5-1 4-2 2-1 8-2 60-1 11-5 1-25-12-58-29-19-10-11-6-14-7-4-1-2-23-1-35v-27l2-2 2-5 5-7z" fill="#20399F"/>
<path transform="translate(832,418)" d="m0 0h1l-1 69-1 33-2 7-10 5-5 1-14-3h-11l-14 2-17 6-15 8-16 13-13 13-9 11-4 6-9 3-9 2-1-1v-106l15-6 16-8 18-8 19-9 26-12 34-16z" fill="#DBC6A8"/>
<path transform="translate(660,823)" d="m0 0 4 4v126l-5 4-16 9-12 6-14 8-11 6-15 8-16 8-8 5h-6l-1-33v-98l4-6 9-6 83-40z" fill="#DAC5A6"/>
<path transform="translate(464,634)" d="m0 0 9 2 10 5 23 11 15 8v2l5 1 5 3v2l5 1 4 4v180l-6-1-10-7-11-6-28-15-21-11-1-5v-173z" fill="#0D6A87"/>
<path transform="translate(826,776)" d="m0 0h2v70l-1 19-3 5-11 6-4 4-17 8-38 20-16 8-36 19-15 7h-15v-1l7-1 1-124 20 8 11 2h27l16-3 12-4 20-9 10-6 13-10 13-12z" fill="#D9C5A6"/>
<path transform="translate(431,475)" d="m0 0 6 1 33 17 18 8 28 15 14 9 7 9 2 9 1 103 3 10 1 2-5-1-21-10-22-12-32-16-7-3-7-24-5-12-10-15-7-7v-69l1-11z" fill="#0D6A87"/>
<path transform="translate(282,762)" d="m0 0 6 1 28 15 19 11 28 15 23 13 14 8 11 6 3 3v62l-1 23-1 9h-8l-20-11-14-8-24-14-28-16-21-11-12-6-5-9-2-52v-35z" fill="#213A9F"/>
<path transform="translate(951,694)" d="m0 0 5 1 1 12v32l-1 55-2 8-8 6-26 14-19 10-56 28-5 2-1-2-1-100 10-15 10-5 23-11 40-20z" fill="#F8B338"/>
<path transform="translate(721,355)" d="m0 0 9 1 29 12 50 24 8 4-4 4-41 20-16 7-14 7-33 15-28 13-4 1h-7l-23-11-15-8-19-10-16-9-9-5 3-3 17-8 15-7 16-8 47-22 16-8z" fill="#AC6A57"/>
<path transform="translate(664,497)" d="m0 0h2v104l-7 8-7 6-34 15-16 8-28 13-8 2-5-5-1-84v-13l1-8 12-5 15-7 33-15 18-8z" fill="#DCC8AA"/>
<path transform="translate(957,359)" d="m0 0 2 4-2 73-1 25-5 5-28 14-23 11-26 12-15 7-7 3-4-1-2-3v-99l21-9 27-13 60-28z" fill="#DBC6A8"/>
<path transform="translate(368,347)" d="m0 0 8 1 26 13 19 10 17 8 19 10 23 11 19 10 13 7v2l-35 16-29 14-13 5-8 1-27-13-19-10-22-12-60-30-9-5 1-3 35-16 34-16z" fill="#6E9C3A"/>
<path transform="translate(164,685)" d="m0 0 5 2 26 14 21 12 25 13 22 12 2 4 1 8 2 74 1 27 7 1 5 3 4 4v2l-5-2-8-5-15-5-26-15-1-4-6-2-26-15-14-8-12-7-4-3-1-7-2-67-1-19z" fill="#641E76"/>
<path transform="translate(543,410)" d="m0 0 6 1 19 10 19 9 14 8 21 10 16 8 17 9 1 6-16 8-38 18-37 18-5 2h-4l-3-5-11-7-27-14-18-10-28-15-19-9 3-3 35-17 22-10 16-8z" fill="#F9B338"/>
<path transform="translate(640,188)" d="m0 0 6 1 34 16 33 16 23 11 29 14 19 9 8 7v2l-30 14-35 17-5 2-6-1-86-43-23-11-36-18 1-3 16-8 23-11 16-8z" fill="#6E9C3A"/>
<path transform="translate(300,605)" d="m0 0h7l5 5 11 8 16 9 9 5 10 6 22 13 9 6h13l8 6 2 3v39l-1 35-5 4h-16l-3-1-11-1-9-3-7-1-10-4-11-9-9-7-7-8-17-17-6-10-1-6v-71z" fill="#1B8CCB"/>
<path transform="translate(624,181)" d="m0 0 5 1 19 6v1h-8l-28 13-19 10-18 8-4 4 6 2 34 17 23 11 84 42 1 2-9-3-14-7-5-2-4-1v-2l-6-2-6-3-5-2v-2l-7-2-3-2-5-1-3-3-9-5h-5l-5-3-3-1-10-4-6-2-24-12-23-11-11-5h-6l-30 14-39 18-26 11-48 22-15 6h-2l1 2 6 2v4l-10 2-28 13-16 7-1 3 6 2 23 11 18 8 36 18 19 10 20 10 19 10 26 14 9 5 5-1 16-8 6-1 11 4 16 7 6 1 5-3 10-4 11-6 10-4 29-14 29-13 15-7 12-6 19-9 5-3 5-1 2 1 4-1 5 2v2l6 2 52 25 19 10 7 3 3 3v3l-68 32-63 29-14 6 2-4 41-19 31-14 14-7 28-13 19-10-19-10-26-12-14-7-27-11-9-1-29 14-23 11-40 19-17 8-23 11 6 5v2l4 2 9 4 7 4v2h3l2 2 2 1 3 1 7 3 5 5 1 2 1-2 6 2 9 5v5l-5-1-16-8-8-2-16-8-21-11-17-9-21-10-3-2v-2l-7-1-2 2-7 2-1 4-5 1v2l-6 2-7-2v-2l-6-2-25-13-16-8-15-8-16-8-31-15-19-10-3-2v-2h-2v-2h-2v-2h-2v-2l-9-3-6-1-1 2-27-13 1-5 14-7 25-11 7-4-31-16-22-12-17-9 4-1 7-1 1-1 7 1 16 8 33 17 5 2 9-1 37-17 84-38 28-13v-2l-46-22-12-6-7-1 2-2 8-2 4-3 9 3 19 9 19 10 13 6h8l16-6 10-5 37-17z" fill="#2A1C32"/>
<path transform="translate(794,589)" d="m0 0 10 2 8 4 7 8 3 10v13l-5 17-11 19-1 3v28l4 2 3 5 1 7 1 31-4 5-13 10-20 11-8 1-5-3-2-3-1-5-1-17v-17l5-8h2l1-6v-27l-9-5-6-7-4-10v-17l3-11 8-16 4-6 5-6 13-9z" fill="#291B31"/>
<path transform="translate(334,556)" d="m0 0 11 1 12 5 13 11 10 12 9 16 5 15 4 22 2 10 11 9 5 7 1 9-1 67-3 6-6 3h-17l-26-5-12-3-9-6-11-10-8-7-12-11-7-7-9-13-1-3v-80l4-5 3-1h11v-10l2-15 5-10 6-5zm-34 49-1 1v71l2 8 6 9 27 27 11 9 9 6 6 2 7 1 9 3 11 1 3 1h16l5-4 1-35v-39l-5-6-5-3h-13l-19-12-21-12-5-3-21-12-12-9-4-4z" fill="#291B33"/>
<path transform="translate(535,269)" d="m0 0h14l4 4 27 18 1 4-9 7-29 14-21 9-26 12-16 8-7 3h-7l-16-9-8-7v-18l4-9 9-10 10-7 16-8 19-6 14-3z" fill="#DA3250"/>
<path transform="translate(613,284)" d="m0 0 6 1 12 7 11 8 6 8 4 9v13l-5 10-9 9-18 11-10 4-6-1-20-12-17-10-10-6-11-6-6-3-1-4 16-7 16-8 15-9 23-12z" fill="#8C225E"/>
<path transform="translate(445,458)" d="m0 0 7 1 23 12 20 11 12 6 22 12 19 10 5 5 5 12 1 5v125l-4 3h-7l-5-3-3-6-1-5-1-103-2-9-7-9-17-10-28-15-23-12-19-10-8-5 1-5 6-8z" fill="#6E9C3A"/>
<path transform="translate(558,150)" d="m0 0 13 5 25 12 4 2v2l6 2 15 7-1 3-34 16-11 5-14 6-4 1h-8l-25-12-16-8-17-8v-2l27-12 14-7 13-6 8-3z" fill="#D9553A"/>
<path transform="translate(342,322)" d="m0 0 3 1-2 1-1 3 6 2 23 11 18 8 36 18 19 10 20 10 19 10 26 14 9 5 5-1 16-8 6-1 11 4 16 7 6 1 5-3 10-4 11-6 10-4 29-14 29-13 15-7 12-6 19-9 5-3 5-1 2 1 4-1 5 2v2l6 2 52 25 19 10 7 3 3 3v3l-68 32-63 29-14 6 2-4 41-19 31-14 14-7 28-13 19-10-19-10-26-12-14-7-27-11-9-1-29 14-23 11-40 19-17 8-23 11 6 5v2l4 2 9 4 7 4v2h3l2 2 2 1 3 1 7 3 5 5 1 2 1-2 6 2 9 5v5l-5-1-16-8-8-2-16-8-21-11-17-9-21-10-3-2v-2l-7-1-2 2-7 2-1 4-5 1v2l-6 2-7-2v-2l-6-2-25-13-16-8-15-8-16-8-31-15-19-10-3-2v-2h-2v-2h-2v-2h-2v-2l-9-3-6-1-1 2-19-9-1-3 2-1-1-4z" fill="#271F3A"/>
<path transform="translate(617,541)" d="m0 0 10 3 13 5 2 4v41l-16 8-20 11-5 2h-7l-10-4-1-1v-39l2-7 10-9 12-9z" fill="#2C1F32"/>
<path transform="translate(821,398)" d="m0 0 4 1 6 9 2 7-15 8-22 10-16 8-33 15-34 16-26 11h-7l-10-16v-1l12-3 34-16 33-15 30-14 38-18z" fill="#DDCAAD"/>
<path transform="translate(692,607)" d="m0 0h2l-2 5-11 23-11 33-5 25-1 20v12l2 26 4 15 5 13 6 11-2 4-6 8-4 5-9-11-8-16-4-14-2-14-1-23 1-20 3-23 6-24 10-28 8-16 5-3 4-4z" fill="#474D5A"/>
<path transform="translate(519,266)" d="m0 0h33l6 3 8 7 14 9v-5l9-5 5-2h9l16 7 18 10 10 8 8 11 3 9v11l-4 9-1-4 1-6 1-5-2-9-7-11-2-4-5-2-13-10-10-4v-2l-5-1h-3l3 2-9 3-16 7-2-4v-7l11-5-9 3-2 1-1 7-3 2-6-5-8-3-14-10 1-2-3-1-19-1-1 2v-2l-5 1v1l-13 2-15 3-15 5h-5v2l-4 2h-4l-2 5-11 7-7 7-5 9-1 3v18l7 6 16 9h7l19-9 5-1 10-4h3v2h-2v4l16 8 10 4 3 2 1 28-4 2h-8l-34-18-6-2-5-1-10-6-9-2-16-9-7-7-3-7v-18l4-9 8-10 14-10 16-8 19-6 15-3z" fill="#291B32"/>
<path transform="translate(541,671)" d="m0 0h10l6 2 3 9h-2v149l-1 25-3 2h-7l-7-4v-182z" fill="#6E9C3A"/>
<path transform="translate(182,317)" d="m0 0h3v2l-12 6 26 13 19 10 33 16 19 10 10 4-1 2h-2v2l-3 1-4 5-5-1-26-14-19-10-56-28-5-1v2h-2l-2 7v53l2 47 3 21 2 11v42l3 117 1 37-1 5v26l2 48 1 38 1 7 13 8 15 8 17 10 16 9v2l-6-2-24-14-14-8-11-6-6-4-3-4-1-10-1-45-2-37v-27l1-15-3-118-1-28-1-46-3-10-2-25-1-24v-66l5-10 8-7z" fill="#0F6988"/>
<path transform="translate(953,336)" d="m0 0 3 1 4 8v7l-2 6-12 4-35 17-33 15-19 9-11 5h-2l-7-11-3-5 8-5 34-16 28-13 26-12z" fill="#DDCAAD"/>
<path transform="translate(656,473)" d="m0 0 2 3 8 16v3l-17 7-29 13-28 13-22 10-7 3-3-3 1-11-4-6 3-3 18-8 17-8 20-9 29-14z" fill="#DDCAAD"/>
<path transform="translate(288,384)" d="m0 0 6 2 27 14 48 24 16 9 23 12 19 9v4l-4 5-1 4-3 1-40-21-46-23-19-10-28-13-2-3h-2l-2-5 6-8z" fill="#0E6987"/>
<path transform="translate(536,865)" d="m0 0 13 2 5 2 4 6 1 123-2 5-2 2 4 2-11-1-8-4 1-3v-99l-1-24-3-9z" fill="#6E9C3A"/>
<path transform="translate(541,218)" d="m0 0h2l1 1h6l4 1 2-1v2l4 1 3 3-7-2h-6l-30 14-39 18-26 11-48 22-15 6h-2l1 2 6 2v4l-10 2-28 13-11 5-7 2 1 5h-3l-1 2-6-3 1-5 14-7 25-11 7-4-31-16-22-12-17-9 4-1 7-1 1-1 7 1 16 8 33 17 5 2 9-1 37-17 84-38 28-13z" fill="#2A1E35"/>
<path transform="translate(556,149)" d="m0 0 9 1 14 5 32 16 12 5 13 6 18 7 17 8 16 8 21 10 32 16 42 20 13 8 22 4 29 14 29 15 32 16 15 8 19 9 12 7 6 5 3 7v13l-2 53-1 41-1 10-2 5-2-3 1-2 2-59 1-43-4-1 4-1 1-9-1-6-3-5-2-1v-2l-5-2-47-24-25-12-22-11-19-10-19-9-5-2-15-1-7-3-9-6-31-15-23-11-52-25-28-13-1-2-16-5-5-1h-3v-2l-9-3-12-6v-2l-6-2-32-15-4-1-9 5-10 4-20 9-14 7-16 7-6 4-7 2-3 2-28 13-25 11-40 18-13 6h-2l1-3 19-9 29-13 27-12 15-7 19-9 11-4 9-6 30-13 16-8 11-5z" fill="#506156"/>
<path transform="translate(544,440)" d="m0 0 5 1 23 13 12 7v3l-22 12-13 7-5-1-28-14-10-6 1-3 36-18z" fill="#281F38"/>
<path transform="translate(527,327)" d="m0 0 6 1 20 11 43 25 3 3-10 5-9 2-11 1h-9l-16-2-3-2-1-19-4-4-23-11v-3z" fill="#A42864"/>
<path transform="translate(726,347)" d="m0 0 4 1 4-1 5 2v2l6 2 52 25 19 10 7 3 3 3v3l-68 32-63 29-14 6 2-4 41-19 31-14 14-7 28-13 19-10-19-10-26-12-14-7-27-11-9-1-29 14-23 11-40 19-5 1 3-3 7-4 19-8 5-5 8-3h2l3-3 9-4 3-3 16-8 19-9 5-3z" fill="#292039"/>
<path transform="translate(506,339)" d="m0 0 7 2 11 6 10 4 3 2 1 28-4 2h-8l-34-18-17-8v-3l16-8z" fill="#F7B239"/>
<path transform="translate(711,731)" d="m0 0 6 3 10 1 8 1 7 3 3 5v2l6 1 2 6h1l1-5 1 4 3-1 1 5-1 2h-2l-2 8-3 5-3-3-2 2h-3l2 5-4-1-2-1v-7l-2 3v-2l-3-1v-3l3-2-1-3-1 2h-9l-9-3-11-6-4-2-4 1-2-2-2-9-1-5 1-1h7v3l2 1 3 1 1-5z" fill="#464F5C"/>
<path transform="translate(333,562)" d="m0 0h11l12 6 10 9 9 10 8 15 5 15 3 18v13l-5-1-3-3-4-25-6-17-7-11-9-10-4-4-3-1v-2l-10-2h-9l-4 4-2 15v17h-6l-1-2v-23l2-10 6-7h2v-2z" fill="#1B82C1"/>
<path transform="translate(796,551)" d="m0 0 3 4 3 1-1 4-10 4-4 1h-2l-1 2-4 2h-2l-2 2-5 2-9 6-5 5-3 1-1 2h-3l-2 4-7 6-11 11-6 8-3-1v-8l-1-3 2-4h3l2-5 8-11 11-11 9-6h2v-2l10-6 8-4 12-3z" fill="#0E778F"/>
<path transform="translate(337,580)" d="m0 0h6l10 6 10 9 7 11 5 14 1 8-5-2-16-8-15-8-9-4v-13l3-10z" fill="#0E6789"/>
<path transform="translate(342,654)" d="m0 0h7l7 5 5 9 1 3v9l-3 5-3 1v30l-6-1-13-10v-11l4-13-1-7h-2l-2-6v-8l4-5z" fill="#291C34"/>
<path transform="translate(450,457)" d="m0 0 9 3 20 10 22 12 29 16 19 10 7 6v3l13-5 45-22 28-13 12-6 2 1-1 3-25 12-32 15-18 8-17 8-5 2 3 6 1 4-1 8 3 2 34-16 18-8 13-6 31-14 5-1 1 2-33 15-25 11-24 11-11 5-11 4-1 8v93h-1l-1-38h-1v-74l-4-13-3-6-14-8-29-15-10-6-16-8-19-10-13-7z" fill="#2E2135"/>
<path transform="translate(157,333)" d="m0 0 4 1h-2v2h-2l-2 7v53l2 47 3 21 2 11v42l3 117 1 37-1 5v26l2 48 1 38 1 7 13 8 15 8 17 10 16 9v2l-6-2-24-14-14-8-11-6-6-4-3-4-1-10-1-45-2-37v-27l1-15-3-118-1-28-1-46-3-10-2-25-1-24v-66z" fill="#57704E"/>
<path transform="translate(803,699)" d="m0 0h3v7l-4 9-2 15-4 4-6 3-7 8-12 5h-2l1-24v-8l9-7 21-11z" fill="#474E5D"/>
<path transform="translate(951,473)" d="m0 0h1v54l-1 154 2 9 2 4-10 4-24 12-17 8 1-7-2-2-10 5h-2v2l-7 2v-2l22-11 23-11 17-8 1-1 1-61 1-126h2z" fill="#2D2333"/>
<path transform="translate(556,149)" d="m0 0 9 1 14 5 32 16 12 5 13 6 18 7 13 7v2l9 3 17 9 13 6-3 1-33-16-24-11-1-2-16-5-5-1h-3v-2l-9-3-12-6v-2l-6-2-32-15-4-1-9 5-10 4-20 9-14 7-16 7-6 4-7 2-3 2-28 13-25 11-40 18-13 6h-2l1-3 19-9 29-13 27-12 15-7 19-9 11-4 9-6 30-13 16-8 11-5z" fill="#3A3940"/>
<path transform="translate(165,675)" d="m0 0 5 1 12 7 12 6 18 10 16 8 25 13 5 3 4 8v3l-6-2-27-14-21-11-39-22-5-3v-6z" fill="#651E77"/>
<path transform="translate(836,800)" d="m0 0h1v61l3-1h4l19-10 44-22 19-10 22-12 4-3-2 4-13 8-23 12-15 8-16 8-17 9-16 8-8 3-8 2-11 8-8 4-3-1 12-7 2-5 1-23 1-13 1-7v-16l4-1h3z" fill="#261E3A"/>
<path transform="translate(544,448)" d="m0 0 5 1 19 10 4 2-1 3-22 11-4 1-16-9-10-4 1-3z" fill="#D6563C"/>
<path transform="translate(507,337)" d="m0 0 5 1 3-1 21 10 5 5 1 19 8 2 10 1h9l20-2 8 1-3 2-12 3-9 1h-11l-13-1-6-2 1 4-1 2-10 4h-7l-12-5-42-22-6-3v-1l7 1 10 6 6 1 16 8 21 11h8l3-1-1-28-8-4-10-4-12-6z" fill="#2A1F35"/>
<path transform="translate(687,803)" d="m0 0 5 2 11 7 6 2 10 1 10 4 7 1h20l2 3-12 3-8 1h-27l-14-3-14-6-2-2 1-6 4-6z" fill="#474D59"/>
<path transform="translate(541,218)" d="m0 0h2l1 1h6l4 1 2-1v2l4 1 3 3-7-2h-6l-30 14-39 18-26 11-24 11-3-1 4-2 2-2h2l2-2 7-2 1-5 37-17 29-13 28-13z" fill="#27203B"/>
<path transform="translate(331,571)" d="m0 0h9l10 3v2l4 1 11 11 9 14 6 17 1 11-2-2-1-5-2 7-2-2h2l-4-15-7-14-9-10-11-7-2-1h-8l-3 12-1 13-3-2-2 4h-1l-1-5v-12l2-15z" fill="#261E3A"/>
<path transform="translate(711,311)" d="m0 0 10 3 18 8 13 7-2 3-16 7-4 4-1 4-7 2-2-2-2-3-1-20-6-9z" fill="#641F76"/>
<path transform="translate(710,695)" d="m0 0h8l5 5 1 2v12l-4 8-7 6-8 1-5-5-1-10 3-11 5-6z" fill="#291B32"/>
<path transform="translate(553,267)" d="m0 0 5 2 8 7 14 9v-5l9-5 5-2h9l16 7 18 10 10 8 8 11 3 9v11l-4 9-1-4 1-6 1-5-2-9-7-11-2-4-5-2-13-10-10-4v-2l-5-1h-3l3 2-9 3-16 7-2-4v-7l11-5-9 3-2 1-1 7-3 2-6-5-8-3-14-10z" fill="#261E3A"/>
<path transform="translate(321,261)" d="m0 0 7 1 16 8 33 17v7h-3l-1 2-2-4-3-2-1-1-2-4h-3l-2 2-2 3-25-13-18-10-6-3 4-1 7-1z" fill="#2B1F35"/>
<path transform="translate(856,633)" d="m0 0h7l5 5 1 3v7l-3 9-5 5-5 2-7-1-3-4-1-10 3-9 5-5z" fill="#291B33"/>
<path transform="translate(620,252)" d="m0 0 10 4 4 1 4 3 7 1 10 6v2l7 1 8 4 3 3h4v2l7 2 3 2v2h6l10 6 14 6 9-2 2 2 2 1-5 3-1 2h2v2l4 1 3 2v2l5 2 8 4 14 8-1 2-7-1-26-12-10-5v-3h2v-3l-5-2-23-12-34-17-7-3-22-11-7-3z" fill="#261F3B"/>
<path transform="translate(415,672)" d="m0 0 2 1-1 67-3 6-6 3h-17l-26-5-12-3-9-6-8-7h3l10 6 11 4 15 4 7 1h25l4-3 1-12 1-1 1-36 1-15z" fill="#291B32"/>
<path transform="translate(634,564)" d="m0 0 2 1-1 25-8 5-17 8 2-19 2-5 11-7 5-4h2z" fill="#D4553C"/>
<path transform="translate(574,225)" d="m0 0 19 9 21 10 104 52 1 2-9-3-14-7-5-2-4-1v-2l-6-2-6-3-5-2v-2l-7-2-3-2-5-1-3-3-9-5h-5l-5-3-3-1-10-4-6-2-24-12-23-11-2-2h8z" fill="#261E39"/>
<path transform="translate(951,473)" d="m0 0h1v54l-1 154 2 9 2 4h-3l-3-5v-3l-2-1 1-61 1-126h2z" fill="#474D5C"/>
<path transform="translate(300,603)" d="m0 0h6l1 2-7 1v71l2 8 6 9 22 22v2l4 2 11 9 9 6 6 2 7 1 9 3 11 1 2 2h-8l-15-3-14-4-14-8-9-6-4-4-3-5-8-7-1-3h-2v-2h-2l-2-5-4-2-3-7-3-6v-77z" fill="#252143"/>
<path transform="translate(731,349)" d="m0 0 8 1 35 17 23 11 21 11 4 3-1 3-9-3-27-14-34-16-24-10v-2z" fill="#126793"/>
<path transform="translate(663,495)" d="m0 0 3 1-4 3-54 24-24 11-11 5-11 4-1 8v93h-1l-1-38h-1v-53l1-15 5 2 34-16 18-8 13-6 31-14z" fill="#4B5A37"/>
<path transform="translate(547,443)" d="m0 0 6 2 13 8 6 3 5 1 8 5-4 4-31 16-4 1-2-1v-3l-4-1 1-2h8l17-9 6-3v-3l-6-2-17-9-4-5z" fill="#28203B"/>
<path transform="translate(558,682)" d="m0 0h2v152l-3 3v-132z" fill="#454D3F"/>
<path transform="translate(714,303)" d="m0 0h4v2h-2v3l6 2 23 11-3 1-15-6-9-2-7-3 3 7 4 6 1 20 2 3-4 1-7-4-1-2-1-20v-12l2-4z" fill="#261E39"/>
<path transform="translate(791,260)" d="m0 0 5 2 10 1-3 3-28 13-21 10-7 1v-4l7-3v-2l27-13 9-4h2z" fill="#291D35"/>
<path transform="translate(332,561)" d="m0 0h19l9 5 2 2 5 2 11 12 2 3 2 7 4 6 2 7v8l1 8h2v13l2 1v15l-5-1 3-1-2-20-3-14-6-16-7-12-9-10-8-7-12-6h-14z" fill="#261E3A"/>
<path transform="translate(157,333)" d="m0 0 4 1h-2v2h-2l-2 7v53l2 47 3 21 2 11v12h-2l-1-5-1-14-3-10-2-25-1-24v-66z" fill="#4F6255"/>
<path transform="translate(817,396)" d="m0 0 4 2-4 3-27 13-58 27-33 15-18 8 2-4 41-19 31-14 14-7 28-13 19-10z" fill="#363235"/>
<path transform="translate(678,370)" d="m0 0 3 1-8 4h-2l-1 2-4 2-10 4v2l-12 6-13 5-6 4v2l-16 7-10 5-2-3h-2v-2l9-5 10-4 29-14 29-13z" fill="#27203A"/>
<path transform="translate(828,417)" d="m0 0 2 1v2l-37 17-27 13-33 15-13 6-22 10-7 3 1-4 27-12 32-15 20-9 24-11 16-8z" fill="#3A393B"/>
<path transform="translate(490,179)" d="m0 0 2 1-5 5-4 2-7 2-3 2-28 13-25 11-40 18-13 6h-2l1-3 19-9 29-13 27-12 15-7 19-9 11-4z" fill="#4A5A57"/>
<path transform="translate(560,865)" d="m0 0h3l2 5-4 6v131l-7-1 3-4 1-4-1-124h3v-5h-3l1-3z" fill="#2C1F34"/>
<path transform="translate(792,550)" d="m0 0h20l13 4 8 4 13 10v3l-11-7-9-3-6-1h-12l-10 1 3-2 1-3-4-1-2-3-21 3 2-2z" fill="#6C9B3B"/>
<path transform="translate(596,570)" d="m0 0 6 1 2 2 1 7v25l-4 3h-5z" fill="#CC4E41"/>
<path transform="translate(950,334)" d="m0 0h3v3l-31 15-33 15-38 18-8 3 2-4 35-17 29-13 27-13z" fill="#312835"/>
<path transform="translate(519,266)" d="m0 0h33l1 2-22-1-1 2v-2l-5 1v1l-13 2-15 3-15 5h-5v2l-4 2h-4v2l-7 2-1 2h-2v2h-3l-2 4-3 1-2 4h-2v2l-4 1-4 7-1-3 8-11 10-8 15-9 19-7 15-4z" fill="#261F3B"/>
<path transform="translate(159,334)" d="m0 0h5l74 37 23 13 9 4-3 1v28h-1v-27l-5-2-28-16-74-37z" fill="#261F3B"/>
<path transform="translate(752,282)" d="m0 0h3l-1 2-7 2v4l5-1-4 3-19 9 4 3 22 12 14 8-1 3-6 2 2-3h2l-3-3-11-4-11-6-8-3-4-4-3-1v-2h-2l1-3 3-2-3-2 8-5z" fill="#2B1D33"/>
<path transform="translate(667,196)" d="m0 0 5 2 23 11 35 17 19 9 12 6 19 9 2 4-6-2-71-34-3-3-25-12-10-5z" fill="#4C5C53"/>
<path transform="translate(527,327)" d="m0 0 6 1 9 5 1 5-7 2-3 2 1 2-10-2-12-6 3-3z" fill="#8B245F"/>
<path transform="translate(620,550)" d="m0 0h7l4 2-5 4-9 7-10 5-10-1 1-5 9-7 9-4z" fill="#1983BD"/>
<path transform="translate(961,344)" d="m0 0h1v13l-2 53-1 41-1 10-2 5-2-3 1-2 2-59 1-43-4-1 4-1 1-9h2z" fill="#4E5C56"/>
<path transform="translate(951,803)" d="m0 0v3l-9 6-24 13-19 10-16 8-17 9-16 8-8 3-8 2-11 8-8 4-3-1 12-7 3-4h2l6-4 5-1h4l19-10 44-22 19-10 22-12z" fill="#5F6951"/>
<path transform="translate(712,357)" d="m0 0m-3 0 3 1v2l-25 12-16 8-27 13-18 8-2-1 7-5 20-8 7-6 8-3h2l3-3 9-4 1-2 7-2 8-4h5v-2h6v-3z" fill="#2A1C32"/>
<path transform="translate(614,245)" d="m0 0 20 9 84 42 1 2-9-3-14-7-5-2-4-1v-2l-6-2-6-3-5-2v-2l-7-2-3-2-5-1-3-3-9-5h-5l-5-3-3-1-11-5v-2l-5-3z" fill="#2B1E33"/>
<path transform="translate(284,400)" d="m0 0 9 3 35 17 19 10 28 14 19 10 24 12 1 2-6-2-21-10-19-10-58-29-17-9-14-7z" fill="#261F3B"/>
<path transform="translate(951,359)" d="m0 0h6l-3 2-34 16-32 15-28 13-10 4v-3l28-13 41-19 29-14z" fill="#393839"/>
<path transform="translate(654,471)" d="m0 0 2 1-1 3-25 12-32 15-18 8-11 5 2-4 43-21 28-13z" fill="#322A36"/>
<path transform="translate(617,541)" d="m0 0 10 3 5 2v3l4 1 1 2h-5l-1 2-1-2-3-1h-7l-11 4-5 1v-3l-3 1-2-2 10-7zm-20 12 2 1h-3z" fill="#2B2438"/>
<path transform="translate(541,218)" d="m0 0h2l1 1h6l4 1 2-1v2l4 1 3 3-7-2h-6l-30 14-6 2 1-4-1-3 26-12z" fill="#261F3B"/>
<path transform="translate(718,303)" d="m0 0 5 1 17 9 11 6 9 5-1 2-7-1-26-12-10-5v-3h2z" fill="#126794"/>
<path transform="translate(731,349)" d="m0 0 8 1 33 16v2l2 2-4 1-26-12-17-7v-2z" fill="#116A93"/>
<path transform="translate(164,682)" d="m0 0 16 8 21 12 26 14 16 8-4 2-27-14-23-13-25-14z" fill="#291B31"/>
<path transform="translate(595,276)" d="m0 0 9 2 7 3v1l-9 3-16 7-2-4v-7z" fill="#842263"/>
<path transform="translate(466,355)" d="m0 0 7 1 10 6 6 1 16 8 21 11v3l-6-1-29-15-19-10-6-3z" fill="#281F39"/>
<path transform="translate(327,575)" d="m0 0 2 1v3l3 2h3l-3 12-1 13-3-2-2 4h-1l-1-5v-12l2-15z" fill="#261F3C"/>
<path transform="translate(546,406)" d="m0 0 6 1 20 9 6 1 4-1-2 3h-2l2 4-4 1-12-4-17-9v-2l-2-1z" fill="#2F243C"/>
<path transform="translate(370,306)" d="m0 0h2v3l-4 1-4 3-9 4-2 3-5 2-7 2 1 5h-3l-1 2-6-3 1-5 14-7z" fill="#2B1D33"/>
<path transform="translate(163,598)" d="m0 0h1l2 61v16l-1 1-1 26h-2v-27l1-15z" fill="#506155"/>
<path transform="translate(489,182)" d="m0 0 7 2 1 3 4 2-2 3 3 3-3 3-17-8-7-1 2-2 8-2z" fill="#2C2036"/>
<path transform="translate(331,571)" d="m0 0h9l10 3v2l3 3-4 3-5-2h-8l-5 2v-2l-3-1v-5z" fill="#281D37"/>
<path transform="translate(593,410)" d="m0 0h5l1 4-10 5 1 3-4 2 1 6-6-2-11-6 2-1 6 2v-4l5-5z" fill="#2A1D33"/>
<path transform="translate(424,838)" d="m0 0h2v98l-8-8-5-1v-31h1v29l5 1 4 3z" fill="#28223D"/>
<path transform="translate(663,495)" d="m0 0 3 1-4 3-54 24-5 2-3-1 17-9 17-7 26-12z" fill="#3A393A"/>
<path transform="translate(948,631)" d="m0 0h1l1 5h1v45l2 9 2 4h-3l-3-5v-3l-2-1z" fill="#618145"/>
<path transform="translate(828,417)" d="m0 0 2 1v2l-37 17-27 13-1-3 27-13 28-13z" fill="#3D3F38"/>
<path transform="translate(549,153)" d="m0 0 2 1-2 2-10 4-20 9-14 7-12 5-2-1 4-4 30-13 16-8z" fill="#404846"/>
<path transform="translate(726,347)" d="m0 0 4 1 4-1 5 2-3 1h-9v2l2 1-9 2-3 3-5 2v-2h-5v3l-4 2-7 1-8 4-5 1 4-3 12-6 19-9 5-3z" fill="#28213B"/>
<path transform="translate(474,255)" d="m0 0m-7 0 1 2h2l1-2 3 1-3 3-31 14-9 4-3-1 4-2 2-2h2l2-2 7-2 1-5 9-3h4l1-2h5v-2z" fill="#261F3A"/>
<path transform="translate(946,686)" d="m0 0h3l3 6-1 3-12 6-5-2-1-5h3l2-4z" fill="#2A1D33"/>
<path transform="translate(951,473)" d="m0 0h1v54l-1 23-2 1v-53h2z" fill="#608046"/>
<path transform="translate(727,299)" d="m0 0m-2 1h2v2l6 2 22 12 14 8-1 3-6 2 2-3h2l-3-3-11-4-11-6-8-3-4-4-3-1v-2h-2z" fill="#291B31"/>
<path transform="translate(412,919)" d="m0 0h1l1 7 7 3 4 6 5 3 19 10 7 4 3 2v2l-5-2-19-9-9-6-7-7-4-2-6-1 2-3z" fill="#2C8274"/>
<path transform="translate(637,563)" d="m0 0 3 1-1 5 2 17-1 4-2 3h-2v2l-18 9h-2l1-3 14-7v-2l5-1 1-1z" fill="#261F3B"/>
<path transform="translate(556,149)" d="m0 0 9 1 14 5 24 12-4 1-20-10-8-2-13-5-5 3-10 1 4-3z" fill="#506D53"/>
<path transform="translate(157,333)" d="m0 0 4 1h-2v2h-2l-2 7-1 53-2-3v-50z" fill="#425261"/>
<path transform="translate(163,702)" d="m0 0h2l1 19v63h-1l-1-45-1-14z" fill="#5B754B"/>
<path transform="translate(791,260)" d="m0 0 5 2 10 1-3 3-19 9-3-1 5-3-4-1 4-4 6-2z" fill="#291B33"/>
<path transform="translate(646,189)" d="m0 0h8l13 7v2l9 3 17 9 13 6-3 1-33-16-24-11z" fill="#393B46"/>
<path transform="translate(541,900)" d="m0 0h1v99l-1 2-6-1-3-3 9 1z" fill="#157789"/>
<path transform="translate(804,709)" d="m0 0h2l1 4v16l-8 2 2-16z" fill="#271D36"/>
<path transform="translate(381,349)" d="m0 0 14 4 4 3v2h2v2l4 1 22 11-1 2-23-11-19-10-3-2z" fill="#2D2035"/>
<path transform="translate(771,367)" d="m0 0 6 1 16 8 4 3-4 3-21-10z" fill="#126392"/>
<path transform="translate(490,179)" d="m0 0 2 1-5 5-4 2-7 2-3 2-19 9h-3v-3l24-11 11-4z" fill="#455754"/>
<path transform="translate(507,337)" d="m0 0 5 1 3-1 16 8 1 5-10-3-16-8z" fill="#322235"/>
<path transform="translate(154,440)" d="m0 0 1 3h2l3 21 2 11v12h-2l-1-5-1-14-3-10-1-9z" fill="#516453"/>
<path transform="translate(291,266)" d="m0 0h3v2l-31 15-28 13h-2v-2l11-5 21-10 17-8z" fill="#4B5B59"/>
<path transform="translate(412,667)" d="m0 0 3 3-1 22-1 35-2 1v-23z" fill="#24275B"/>
<path transform="translate(598,524)" d="m0 0 3 1-4 3-23 10-9 4-3 1-1 8h-1l-1-13 5 2z" fill="#434A3A"/>
<path transform="translate(827,834)" d="m0 0h3v24l5 2v2l-6 4-2 1-1-7 1-19z" fill="#3C3E38"/>
<path transform="translate(951,359)" d="m0 0h6l-3 2-34 16-7 3-3-1 15-8z" fill="#363239"/>
<path transform="translate(755,365)" d="m0 0 11 3 27 13-3 1-6-1-29-14z" fill="#2B1F36"/>
<path transform="translate(821,553)" d="m0 0 9 3 11 8 6 5-1 2-11-7-10-4-7-2 2-2-1-2z" fill="#5C9549"/>
<path transform="translate(722,442)" d="m0 0h2l-1 3-28 13-14 6 2-4z" fill="#342F39"/>
<path transform="translate(486,245)" d="m0 0 3 1h-2l-2 4-2-1-2 4-10 4-6-1v2l-3 1-2-1-1 3h-4v-2z" fill="#2D2136"/>
<path transform="translate(776,778)" d="m0 0h8l1 4-4 2-5 1-2 6-6-1 1-4 4-2 2-5z" fill="#46505C"/>
<path transform="translate(439,571)" d="m0 0 4 4 7 14 6 19 1 8-2-2-3-11-3-8-2-1-1-7-3-1-1-8-3-5z" fill="#261E3A"/>
<path transform="translate(677,276)" d="m0 0 19 9 22 11 1 2-9-3-14-7-5-2-4-1v-2l-6-2-4-2z" fill="#2A1B31"/>
<path transform="translate(667,196)" d="m0 0 5 2 44 21-4 1-7-2-3-3-25-12-10-5z" fill="#516C53"/>
<path transform="translate(510,234)" d="m0 0h3l-1 4h-2l-1 2-10 5-4 1-2 1 1-6z" fill="#2A1D33"/>
<path transform="translate(166,750)" d="m0 0h1l1 38 1 7 13 8 3 3-5-1-10-6-4-5z" fill="#516054"/>
<path transform="translate(961,344)" d="m0 0h1v13l-1 24-3-4v-18l-4-1 4-1 1-9h2z" fill="#567044"/>
<path transform="translate(228,296)" d="m0 0 4 1-41 19-5 2v-3l23-10 15-7z" fill="#4E6256"/>
<path transform="translate(708,218)" d="m0 0 12 3 16 8 3 2v2l2 1-5-1-27-13z" fill="#424C4E"/>
<path transform="translate(950,600)" d="m0 0h1v36l-1 12h-1l-1-24 1-22z" fill="#3C4050"/>
<path transform="translate(639,450)" d="m0 0 6 2 9 5v5l-5-1-11-6z" fill="#261E3A"/>
<path transform="translate(931,321)" d="m0 0 5 2 16 8 7 6 2 4v7l-2-3-4-8-2-1v-2l-5-2-17-9z" fill="#546851"/>
<path transform="translate(595,424)" d="m0 0 6 2 17 10 11 5v2l-5-1h-3l-3-2v-2h-3v-2l-5-2-8-4-7-4z" fill="#2C1F35"/>
<path transform="translate(735,310)" d="m0 0 9 3 10 6 11 4 1 3-3 2-9-1-2-2h7l-8-5-11-6-5-3z" fill="#261F3B"/>
<path transform="translate(558,682)" d="m0 0h2v25l-1 13-2 1v-16z" fill="#352F42"/>
<path transform="translate(540,407)" d="m0 0h6l1 4-6 1-17 9-3-1 4-1v-2l5-2 1-3 5-3z" fill="#2A1C32"/>
<path transform="translate(924,347)" d="m0 0m-2 1 3 1-3 3-25 11v-3l16-8z" fill="#322A35"/>
<path transform="translate(755,427)" d="m0 0m-3 1h3v2l-23 11-8 3v-3z" fill="#37343B"/>
<path transform="translate(717,324)" d="m0 0h1l1 20 2 3-4 1-7-4 2-4h3z" fill="#281C34"/>
<path transform="translate(781,251)" d="m0 0 14 8 18 3v1l-7 1-13-2-5-3-6-4z" fill="#526951"/>
<path transform="translate(468,959)" d="m0 0 15 8 13 8v2l-6-2-15-9-9-5z" fill="#2E8373"/>
<path transform="translate(858,642)" d="m0 0 2 2-1 9-2 3-5-1 1-6z" fill="#484E5D"/>
<path transform="translate(389,225)" d="m0 0h6l-4 3-24 11h-2l1-3 19-9z" fill="#485D5A"/>
<path transform="translate(785,747)" d="m0 0h2l-2 4-7 5-9 2v-4l12-5z" fill="#484F5C"/>
<path transform="translate(709,311)" d="m0 0h2l3 7 3 6-3 1-1 6h-2l-2-9z" fill="#291B31"/>
<path transform="translate(571,463)" d="m0 0 2 1-7 4-17 9-10-1-7-7 6 2 7 4 4-1z" fill="#2A1B31"/>
<path transform="translate(811,263)" d="m0 0h6l25 12-1 2-6-2-19-9-5-2z" fill="#4D5E57"/>
<path transform="translate(284,396)" d="m0 0h4v2l3 1 6 4 8 1v3l4 2-1 2-22-10z" fill="#116A91"/>
<path transform="translate(560,974)" d="m0 0h1v33l-7-1 3-4 2-10z" fill="#3D3F41"/>
<path transform="translate(714,708)" d="m0 0h1v8l-3 4-5 1 1-7 5-5z" fill="#484E5D"/>
<path transform="translate(625,512)" d="m0 0h2l-1 3-23 10-3-1 17-9z" fill="#383539"/>
<path transform="translate(958,432)" d="m0 0h1v19l-1 10-2 5-2-3 1-2 1-25z" fill="#5B784B"/>
<path transform="translate(546,440)" d="m0 0 5 2 21 12 2 1v2l-6-2-14-8-5-3h-4z" fill="#2F1F35"/>
<path transform="translate(574,225)" d="m0 0 19 9 6 3-3 3-9-6-12-5z" fill="#2F2539"/>
<path transform="translate(362,284)" d="m0 0h5l2 4 3 5-3 1-6-3-4-1-1-3z" fill="#261E39"/>
<path transform="translate(744,685)" d="m0 0 9 1v5l3 1-5 1-5-3-5-1 1-3z" fill="#46505C"/>
<path transform="translate(835,861)" d="m0 0 4 1-11 7-5 4-8 4-3-1 12-7 3-4h2z" fill="#53664E"/>
<path transform="translate(538,221)" d="m0 0m-2 1 2 1-12 8-1 2h-5l-1 2v-3l-5 1 4-3z" fill="#2D2136"/>
<path transform="translate(914,483)" d="m0 0 2 1-4 4-1 3-2 2-5 1-2-2v-3z" fill="#2D2639"/>
<path transform="translate(182,317)" d="m0 0h3v2l-10 5h-3v2l-12 6 2-4 16-9z" fill="#4C6157"/>
<path transform="translate(758,242)" d="m0 0 12 3 11 6 1 3-6-2-17-8z" fill="#475454"/>
<path transform="translate(413,896)" d="m0 0h1v29l5 1 5 3 2 4-1 3-5-7-7-2z" fill="#261F3B"/>
<path transform="translate(260,849)" d="m0 0h9v2l7 1 5 3 4 4v2l-5-2-8-5-12-4z" fill="#517053"/>
<path transform="translate(604,278)" d="m0 0 7 1 5 2 1 3-8 3h-5v-3h2v-2l2-1z" fill="#281C34"/>
<path transform="translate(614,245)" d="m0 0 18 8v4l-9-3-4-2v-2l-5-3z" fill="#2A1D33"/>
<path transform="translate(549,153)" d="m0 0 2 1-2 2-10 4-11 5-2-1 3-3 12-6z" fill="#424948"/>
<path transform="translate(664,940)" d="m0 0h1l1 7 4-4 2-1h12l-3 2-10 2-7 6z" fill="#5B794A"/>
<path transform="translate(636,565)" d="m0 0h1l1 26-5 2 1-3 1-24z" fill="#2A1B31"/>
<path transform="translate(763,448)" d="m0 0h2v2l-21 10-3-1 8-5z" fill="#363339"/>
<path transform="translate(412,919)" d="m0 0h1l1 7 7 3 6 8-1 2-7-7-4-2-6-1 2-3z" fill="#4E6556"/>
<path transform="translate(371,285)" d="m0 0 6 2v7h-3l-1 2-2-4-3-2z" fill="#291D34"/>
<path transform="translate(321,258)" d="m0 0 2 1 1 2-9 3-13 1-4 1 1-3 2-1 17-2z" fill="#506255"/>
<path transform="translate(859,710)" d="m0 0 2 1-1 6-2 5h-2v3l-2 1-3 7-2-1z" fill="#261E3A"/>
<path transform="translate(640,566)" d="m0 0 2 1v23l-2-4-2-18zm-1 23 2 1-1 2z" fill="#291B31"/>
<path transform="translate(154,420)" d="m0 0h2v23l-2-3-1-7v-12z" fill="#505F55"/>
<path transform="translate(710,355)" d="m0 0m-2 1 2 1-3 1v3l-4 2-7 1-8 4-5 1 4-3 12-6z" fill="#261F3B"/>
<path transform="translate(641,590)" d="m0 0 1 4-22 11 2-4 12-6h2v-2z" fill="#322C35"/>
<path transform="translate(908,379)" d="m0 0 3 1-4 3-17 8-1-3z" fill="#3C3D3B"/>
<path transform="translate(402,360)" d="m0 0 6 2 15 8 4 2-1 2-23-11z" fill="#30263A"/>
<path transform="translate(632,254)" d="m0 0 6 2 16 8v2l-6-2-5-3h-5l-5-3z" fill="#2E2337"/>
<path transform="translate(772,272)" d="m0 0 2 1-10 6v4l-5 2-3-5z" fill="#2C253D"/>
<path transform="translate(495,186)" d="m0 0 6 2-2 4 3 3-1 2-5-2-4-3z" fill="#261E39"/>
<path transform="translate(356,736)" d="m0 0 11 2 9 3 11 1 2 2h-8l-15-3-10-3z" fill="#25234A"/>
<path transform="translate(874,293)" d="m0 0 5 1 17 9v2l-6-2-16-8z" fill="#4A5E5A"/>
<path transform="translate(937,692)" d="m0 0 7 1-1 4-5 3-4-1-1-5h3z" fill="#261E39"/>
<path transform="translate(953,466)" d="m0 0h2l-2 6-1 1-1 25h-1l-1-26z" fill="#4C5758"/>
<path transform="translate(776,370)" d="m0 0 9 2 10 5-2 2-5-1-12-6z" fill="#10668C"/>
<path transform="translate(507,333)" d="m0 0h3v2l-6 4-5 2h-6l1-2 10-5z" fill="#261E3A"/>
<path transform="translate(372,305)" d="m0 0 2 1h3l3 1-21 10-5 1 1-2 12-6 3-2 2 1z" fill="#261F3B"/>
<path transform="translate(345,245)" d="m0 0h3v2l-20 9-5 2 4-4 16-8z" fill="#4F6056"/>
<path transform="translate(827,834)" d="m0 0h3v25h-2z" fill="#353032"/>
<path transform="translate(784,438)" d="m0 0h2v2l-20 10-1-3z" fill="#3B3A3B"/>
<path transform="translate(903,708)" d="m0 0 2 1 1 5-1 2h-3v-2h-5-3l3-3z" fill="#271D37"/>
<path transform="translate(164,640)" d="m0 0h1l1 23h-2l-1-3v-19z" fill="#576E4E"/>
<path transform="translate(572,536)" d="m0 0h2l-1 3-11 4-1 8h-1l-1-13 5 2z" fill="#444C3E"/>
<path transform="translate(741,351)" d="m0 0 9 2 6 2v2l5 1 1 3-9-3-12-6z" fill="#261F3B"/>
<path transform="translate(560,865)" d="m0 0h3l2 5-4 6-3 1-1-3h3v-5h-3l1-3z" fill="#2D263C"/>
<path transform="translate(857,853)" d="m0 0 1 3-12 6-9 1 2-1 1-2h4z" fill="#68704E"/>
<path transform="translate(159,468)" d="m0 0h2l1 7v12h-2l-1-5z" fill="#3C5465"/>
<path transform="translate(593,432)" d="m0 0 17 8 1 3-6-2-12-6z" fill="#4A3541"/>
<path transform="translate(860,377)" d="m0 0m-2 1h2l-1 3-16 7 2-4z" fill="#322B35"/>
<path transform="translate(630,181)" d="m0 0 9 2 13 5-4 1-19-6z" fill="#516953"/>
<path transform="translate(805,709)" d="m0 0 2 4v16l-3 1z" fill="#464E5E"/>
<path transform="translate(452,385)" d="m0 0 9 4 8 4h2v2l3 1-1 2-20-10z" fill="#31283B"/>
<path transform="translate(951,359)" d="m0 0h6l-3 2-16 7v-3z" fill="#3A393D"/>
<path transform="translate(389,293)" d="m0 0 3 1h-2l1 2 6 2v4l-13 2 2-2 8-2-5-1-2-4z" fill="#26203B"/>
<path transform="translate(827,810)" d="m0 0 1 3h2v8l-2 12h-1z" fill="#495735"/>
<path transform="translate(412,667)" d="m0 0 3 3-1 15-2 3z" fill="#232A67"/>
<path transform="translate(403,654)" d="m0 0 5 3 4 5-2 2-8-6-3-1v-2z" fill="#252246"/>
<path transform="translate(559,544)" d="m0 0h1l1 21-2 5h-1v-17z" fill="#322A3B"/>
<path transform="translate(585,504)" d="m0 0 2 1-3 3-15 7 2-4z" fill="#352E3A"/>
<path transform="translate(575,457)" d="m0 0 6 2 4 4-8 5-6 3-2-1 6-4 6-3-5-4z" fill="#2B1D33"/>
<path transform="translate(858,682)" d="m0 0 4 2-1 4-5 2h-3l1-6z" fill="#46505C"/>
<path transform="translate(556,522)" d="m0 0 3 1 3 4-1 9-2 2z" fill="#342E35"/>
<path transform="translate(817,396)" d="m0 0 4 2-4 3-11 5 1-4 9-5z" fill="#383637"/>
<path transform="translate(818,389)" d="m0 0 5 2 3 3v3l-7 1-2-4h4l1-2-4-2z" fill="#2A253C"/>
<path transform="translate(723,311)" d="m0 0 20 9 2 2-5-1-10-4-7-2z" fill="#261F3B"/>
<path transform="translate(204,307)" d="m0 0h2v2l-20 9v-3z" fill="#516154"/>
<path transform="translate(407,217)" d="m0 0 2 3-11 5h-7l3-2z" fill="#4D6356"/>
<path transform="translate(423,210)" d="m0 0 1 3-13 6h-3v-2z" fill="#4B5C56"/>
<path transform="translate(631,184)" d="m0 0 7 1 10 3v1h-16z" fill="#29213A"/>
<path transform="translate(490,179)" d="m0 0 2 1-5 5-4 2-10 1 2-2 11-4z" fill="#4F6555"/>
<path transform="translate(704,475)" d="m0 0h2l-1 3-13 6-1-2 1-2z" fill="#3D4036"/>
<path transform="translate(763,364)" d="m0 0 7 1 2 2 2 3-4 1-5-3v-2h-2z" fill="#10668C"/>
<path transform="translate(361,290)" d="m0 0 6 2 7 2 3 1-2 4-13-7z" fill="#2E2439"/>
<path transform="translate(754,281)" d="m0 0h2l-1 6-1 2-7 1v-4l7-3z" fill="#271F3A"/>
<path transform="translate(496,977)" d="m0 0 6 1 9 5 3 2v2l-5-2-13-7z" fill="#318470"/>
<path transform="translate(426,936)" d="m0 0 4 2 10 6v2l-6-2-7-4z" fill="#1D7C82"/>
<path transform="translate(805,403)" d="m0 0 2 1-2 3-11 5-3-1 8-5z" fill="#2F2537"/>
<path transform="translate(600,170)" d="m0 0 5 1 15 7 4 2v2h-3v-2l-9-3-12-6z" fill="#945A5B"/>
<path transform="translate(502,173)" d="m0 0 4 1-4 1v2l-9 4-2-1 4-4z" fill="#4C5747"/>
<path transform="translate(359,681)" d="m0 0 2 1-2 3-3 1v15l-2-2v-14z" fill="#242553"/>
<path transform="translate(515,455)" d="m0 0h2v2l-7 4 5 5-6-2-3-2 1-3z" fill="#2B1D33"/>
<path transform="translate(714,324)" d="m0 0h3v9l-2 1-2-2-1-5z" fill="#261E39"/>
<path transform="translate(755,820)" d="m0 0 3 3-12 3h-3l-1-3 7 1-1-3z" fill="#4D5B52"/>
<path transform="translate(805,734)" d="m0 0h2l-2 4-10 5v-3z" fill="#484E5D"/>
<path transform="translate(364,569)" d="m0 0 4 2 10 11 2 5-5-5-5-4-3-5z" fill="#291B31"/>
<path transform="translate(517,232)" d="m0 0 7 1v2l-8 4-2-1v-4z" fill="#261E38"/>
<path transform="translate(919,822)" d="m0 0 2 1-11 6-8 4-1-2 16-8z" fill="#566154"/>
<path transform="translate(828,417)" d="m0 0 2 1v2l-11 5-3-1 9-6z" fill="#35303A"/>
<path transform="translate(157,333)" d="m0 0 4 1h-2v2h-2l-3 12-2 1 1-9z" fill="#35756C"/>
<path transform="translate(765,280)" d="m0 0 2 1v2l-10 5-3-1v-2h2l1-4 3 3 4-2z" fill="#291B31"/>
<path transform="translate(291,266)" d="m0 0h3v2l-15 7h-2v-2z" fill="#4C6058"/>
<path transform="translate(719,468)" d="m0 0h2l-1 3-14 6v-3z" fill="#35303D"/>
<path transform="translate(811,263)" d="m0 0h6l11 5-1 2-6-2-10-4z" fill="#4E5D58"/>
<path transform="translate(449,198)" d="m0 0h2v3l-9 4-4-2z" fill="#4C5D4C"/>
<path transform="translate(619,176)" d="m0 0 6 1 6 3-1 2-6-1-6-3z" fill="#47554E"/>
<path transform="translate(351,656)" d="m0 0 5 3 5 9 1 5h-2l-4-10-5-5z" fill="#242553"/>
<path transform="translate(553,451)" d="m0 0 5 1 10 5 2 3-6-2-11-6z" fill="#2D1B32"/>
<path transform="translate(756,360)" d="m0 0 6 1 4 3h-3v2h2l-1 2-7-3 3-1v-2l-4-1z" fill="#145F95"/>
<path transform="translate(953,334)" d="m0 0 4 1 4 6v7l-2-3-4-8-2-1z" fill="#536552"/>
<path transform="translate(801,720)" d="m0 0 2 4 1 1v5l-5 1 1-9z" fill="#261E3A"/>
<path transform="translate(376,647)" d="m0 0 11 7 4 2v2l-5-2-11-7z" fill="#24285E"/>
<path transform="translate(722,442)" d="m0 0h2l-1 3-12 5v-3z" fill="#393839"/>
<path transform="translate(778,374)" d="m0 0 7 1 5 3h7l-4 4-15-7z" fill="#146095"/>
<path transform="translate(763,360)" d="m0 0 6 2 4 2v2l4 2-5-1-10-5z" fill="#261F3B"/>
<path transform="translate(723,353)" d="m0 0h6l6 4-2 1-6-2h-8l1-2z" fill="#291B31"/>
<path transform="translate(531,345)" d="m0 0 6 3v5l-5-2-2-5z" fill="#291E36"/>
<path transform="translate(559,150)" d="m0 0 9 1 2 1v2l6 2-3 1-14-6z" fill="#3A3D49"/>
<path transform="translate(348,710)" d="m0 0 1 2h5l2-2v6l-6-1-4-4z" fill="#242552"/>
<path transform="translate(790,410)" d="m0 0 2 1v2l-12 5 2-4z" fill="#342E3A"/>
<path transform="translate(787,381)" d="m0 0 10 2 6 6-6-2-10-5z" fill="#291B32"/>
<path transform="translate(753,358)" d="m0 0 4 2 3 2v2l-7-1-2-2v-2z" fill="#106A8F"/>
<path transform="translate(523,228)" d="m0 0 2 1v4h-5l-1 2v-3l-5 1 4-3z" fill="#2E2338"/>
<path transform="translate(700,213)" d="m0 0 6 1 10 5-4 1-7-2-3-3z" fill="#486157"/>
<path transform="translate(461,194)" d="m0 0 2 1-9 5h-3v-3z" fill="#424B4B"/>
<path transform="translate(485,969)" d="m0 0 10 5 1 3-6-2-5-3z" fill="#288178"/>
<path transform="translate(759,677)" d="m0 0 3 3v3l-5 2-1-3z" fill="#46505C"/>
<path transform="translate(626,632)" d="m0 0 1 2 5-2-1 3-3 3-3 2-2-1v-2h2z" fill="#2A243A"/>
<path transform="translate(709,322)" d="m0 0 2 4v5l3 1-3 4-2-2-1-10z" fill="#29213B"/>
<path transform="translate(841,276)" d="m0 0 5 1 7 4v2l-6-2-6-3z" fill="#4F6256"/>
<path transform="translate(361,238)" d="m0 0h3v2l-11 5h-2l1-3z" fill="#4B5D58"/>
<path transform="translate(574,225)" d="m0 0 11 5v2l-6-1-5-3z" fill="#2D2236"/>
<path transform="translate(861,714)" d="m0 0 1 4-4 9-2-2v-3h2l2-7z" fill="#353038"/>
<path transform="translate(759,562)" d="m0 0 2 1-4 2v2l-9 6-2-1 10-8z" fill="#6E9C3A"/>
<path transform="translate(663,495)" d="m0 0 3 1-4 3-5 2-3-1 6-4z" fill="#37333B"/>
<path transform="translate(558,475)" d="m0 0v3l-9 5-5-1v-1l7-2 5-3z" fill="#2A1B31"/>
<path transform="translate(835,861)" d="m0 0 4 1-11 7v-3l5-4z" fill="#4D6156"/>
<path transform="translate(795,379)" d="m0 0 6 1-1 4-5-1z" fill="#116890"/>
<path transform="translate(466,355)" d="m0 0 7 1 7 5-2 1-8-4z" fill="#27203C"/>
<path transform="translate(583,531)" d="m0 0 4 1-10 5h-3v-2z" fill="#373437"/>
<path transform="translate(755,427)" d="m0 0m-3 1h3v2l-8 4-3-1z" fill="#30263B"/>
</svg>
